<svg xmlns="http://www.w3.org/2000/svg" id="canvas" viewBox="643.934 327.378 755.215 258.763"><path d="M 663.89,451.36 C 663.85 455.15, 666.20 460.37, 668.24 469.30 C 670.29 478.22, 671.52 484.51, 674.11 495.98 C 676.70 507.45, 678.57 515.36, 681.17 526.66 C 683.77 537.96, 685.21 543.57, 687.11 552.47 C 689.02 561.36, 689.49 565.23, 690.71 571.14 C 691.92 577.04, 691.38 580.06, 693.19 581.98 C 695.00 583.89, 698.79 583.43, 699.76 580.70 C 700.72 577.98, 699.20 575.59, 698.00 568.37 C 696.81 561.15, 695.66 555.91, 693.79 544.61 C 691.92 533.31, 690.58 525.80, 688.65 511.88 C 686.72 497.95, 685.60 489.77, 684.17 474.98 C 682.73 460.19, 681.96 452.10, 681.49 437.93 C 681.03 423.75, 680.98 416.58, 681.84 404.10 C 682.69 391.63, 683.52 385.65, 685.77 375.56 C 688.03 365.47, 689.65 360.75, 693.11 353.66 C 696.58 346.57, 698.81 343.71, 703.10 340.09 C 707.38 336.48, 709.41 335.46, 714.56 335.57 C 719.71 335.68, 722.51 336.41, 728.85 340.64 C 735.19 344.87, 738.96 348.35, 746.28 356.73 C 753.60 365.12, 757.72 370.87, 765.45 382.57 C 773.17 394.26, 777.24 401.56, 784.90 415.22 C 792.56 428.87, 796.58 436.70, 803.76 450.86 C 810.94 465.02, 814.63 472.64, 820.79 486.01 C 826.96 499.39, 829.94 506.17, 834.58 517.75 C 839.23 529.32, 841.42 534.93, 844.03 543.90 C 846.63 552.87, 847.35 557.04, 847.61 562.59 C 847.87 568.14, 847.48 569.46, 845.34 571.65 C 843.20 573.85, 842.34 574.03, 836.91 573.57 C 831.48 573.11, 827.36 572.15, 818.19 569.36 C 809.02 566.56, 803.00 564.11, 791.06 559.60 C 779.12 555.09, 771.74 551.99, 758.50 546.80 C 745.26 541.62, 737.82 538.74, 724.87 533.68 C 711.92 528.62, 704.89 526.03, 693.74 521.51 C 682.58 516.99, 676.88 514.94, 669.10 511.06 C 661.33 507.19, 658.16 505.06, 654.87 502.13 C 651.59 499.20, 651.37 499.01, 652.67 496.41 C 653.96 493.82, 655.42 492.42, 661.33 489.17 C 667.23 485.92, 672.26 483.70, 682.19 480.15 C 692.12 476.61, 698.77 474.60, 710.98 471.44 C 723.19 468.28, 730.42 466.69, 743.24 464.35 C 756.05 462.01, 763.04 460.99, 775.04 459.74 C 787.05 458.49, 793.07 458.09, 803.26 458.10 C 813.46 458.11, 818.11 458.41, 826.01 459.78 C 833.92 461.16, 837.13 462.24, 842.78 464.99 C 848.44 467.74, 850.37 469.50, 854.29 473.53 C 858.20 477.56, 859.51 480.14, 862.34 485.14 C 865.17 490.13, 866.29 493.27, 868.44 498.51 C 870.59 503.74, 871.46 506.67, 873.10 511.30 C 874.75 515.94, 874.69 518.55, 876.67 521.69 C 878.65 524.82, 880.10 526.06, 883.01 526.98 C 885.91 527.89, 888.43 527.76, 891.20 526.26 C 893.96 524.77, 895.06 523.06, 896.84 519.51 C 898.61 515.96, 898.61 513.24, 900.06 508.50 C 901.52 503.76, 902.25 500.55, 904.10 495.80 C 905.96 491.04, 907.20 488.15, 909.33 484.74 C 911.46 481.32, 912.74 480.14, 914.75 478.72 C 916.76 477.31, 917.14 477.29, 919.37 477.66 C 921.60 478.03, 922.85 478.54, 925.88 480.57 C 928.91 482.59, 931.00 484.46, 934.52 487.77 C 938.04 491.08, 940.04 493.38, 943.49 497.13 C 946.94 500.87, 948.50 503.12, 951.75 506.48 C 955.00 509.84, 956.28 511.73, 959.72 513.91 C 963.17 516.09, 965.18 517.22, 968.97 517.39 C 972.76 517.55, 975.17 516.78, 978.68 514.72 C 982.19 512.66, 983.50 510.55, 986.52 507.09 C 989.54 503.62, 990.83 501.16, 993.78 497.38 C 996.74 493.60, 998.37 491.16, 1001.29 488.18 C 1004.21 485.19, 1005.73 483.88, 1008.38 482.44 C 1011.04 480.99, 1011.79 480.78, 1014.56 480.95 C 1017.33 481.13, 1018.71 481.59, 1022.24 483.32 C 1025.78 485.06, 1027.96 486.68, 1032.23 489.63 C 1036.50 492.58, 1038.90 494.68, 1043.61 498.07 C 1048.32 501.46, 1050.86 503.50, 1055.78 506.57 C 1060.69 509.65, 1063.24 511.32, 1068.18 513.45 C 1073.11 515.58, 1075.58 516.56, 1080.43 517.22 C 1085.29 517.88, 1087.87 517.84, 1092.44 516.75 C 1097.01 515.66, 1099.32 514.52, 1103.28 511.76 C 1107.24 508.99, 1109.03 506.84, 1112.23 502.93 C 1115.43 499.01, 1116.78 496.31, 1119.27 492.18 C 1121.75 488.05, 1122.96 485.56, 1124.65 482.30 C 1126.34 479.03, 1127.29 477.52, 1127.71 475.86 C 1128.14 474.21, 1126.83 473.64, 1126.78 474.02 C 1126.72 474.40, 1125.92 475.78, 1127.43 477.77 C 1128.93 479.77, 1130.97 480.99, 1134.30 484.00 C 1137.63 487.01, 1139.96 489.27, 1144.08 492.80 C 1148.19 496.34, 1150.66 498.36, 1154.88 501.68 C 1159.10 505.01, 1161.18 506.78, 1165.17 509.44 C 1169.16 512.09, 1171.05 513.66, 1174.83 514.97 C 1178.62 516.29, 1180.62 516.52, 1184.11 516.02 C 1187.60 515.52, 1189.43 514.69, 1192.29 512.48 C 1195.15 510.27, 1196.68 508.32, 1198.42 504.95 C 1200.16 501.59, 1200.31 498.83, 1200.99 495.65 C 1201.67 492.47, 1201.35 490.99, 1201.82 489.06 C 1202.28 487.13, 1202.33 486.86, 1203.30 486.01 C 1204.28 485.15, 1204.46 484.92, 1206.69 484.78 C 1208.92 484.64, 1210.40 484.40, 1214.46 485.32 C 1218.52 486.24, 1221.75 487.32, 1226.98 489.39 C 1232.22 491.46, 1235.27 492.93, 1240.64 495.68 C 1246.02 498.44, 1248.90 500.03, 1253.86 503.16 C 1258.82 506.29, 1261.56 508.20, 1265.43 511.33 C 1269.30 514.46, 1270.41 517.08, 1273.21 518.81 C 1276.01 520.55, 1277.46 520.77, 1279.43 520.01 C 1281.40 519.25, 1283.01 517.32, 1283.07 515.01 C 1283.13 512.69, 1282.25 511.33, 1279.72 508.43 C 1277.19 505.54, 1274.41 504.12, 1270.42 500.52 C 1266.44 496.93, 1263.71 494.58, 1259.79 490.46 C 1255.86 486.33, 1253.61 483.80, 1250.81 479.90 C 1248.00 476.01, 1246.85 473.90, 1245.76 470.98 C 1244.68 468.05, 1244.53 467.55, 1245.37 465.29 C 1246.21 463.03, 1246.56 462.01, 1249.95 459.68 C 1253.33 457.35, 1256.02 455.79, 1262.29 453.66 C 1268.56 451.53, 1272.86 450.53, 1281.30 449.03 C 1289.74 447.53, 1295.04 447.02, 1304.48 446.16 C 1313.93 445.30, 1319.33 445.13, 1328.51 444.73 C 1337.70 444.33, 1342.40 444.36, 1350.41 444.19 C 1358.41 444.01, 1362.18 443.97, 1368.54 443.86 C 1374.90 443.76, 1377.73 443.71, 1382.19 443.67 C 1386.66 443.64, 1388.35 444.24, 1390.87 443.68 C 1393.39 443.12, 1393.74 441.84, 1394.79 440.87 C 1395.84 439.90, 1395.96 439.76, 1396.10 438.84 C 1396.25 437.91, 1396.06 437.00, 1395.51 436.23 C 1394.97 435.46, 1394.61 435.40, 1393.38 434.98 C 1392.14 434.56, 1391.72 433.90, 1389.34 434.12 C 1386.96 434.35, 1385.70 435.33, 1381.48 436.12 C 1377.25 436.91, 1374.45 437.43, 1368.21 438.06 C 1361.96 438.68, 1358.21 438.84, 1350.23 439.25 C 1342.25 439.65, 1337.53 439.66, 1328.31 440.09 C 1319.08 440.52, 1313.66 440.67, 1304.09 441.39 C 1294.52 442.11, 1289.20 442.47, 1280.46 443.67 C 1271.71 444.88, 1267.34 445.50, 1260.38 447.41 C 1253.42 449.32, 1250.25 450.26, 1245.66 453.22 C 1241.07 456.19, 1239.03 458.16, 1237.43 462.25 C 1235.84 466.33, 1236.34 469.16, 1237.69 473.64 C 1239.04 478.11, 1241.02 480.17, 1244.18 484.63 C 1247.35 489.10, 1249.76 491.40, 1253.53 495.98 C 1257.31 500.57, 1259.55 503.32, 1263.05 507.56 C 1266.54 511.81, 1268.04 514.64, 1271.00 517.20 C 1273.96 519.77, 1275.58 520.55, 1277.84 520.37 C 1280.10 520.20, 1281.90 518.32, 1282.28 516.33 C 1282.66 514.34, 1282.17 512.73, 1279.73 510.40 C 1277.29 508.07, 1274.50 507.36, 1270.07 504.69 C 1265.65 502.02, 1262.80 500.15, 1257.61 497.05 C 1252.41 493.96, 1249.56 492.26, 1244.10 489.22 C 1238.64 486.18, 1235.71 484.47, 1230.32 481.85 C 1224.93 479.22, 1221.93 477.75, 1217.15 476.10 C 1212.37 474.44, 1210.49 473.57, 1206.43 473.58 C 1202.37 473.59, 1200.20 474.15, 1196.83 476.14 C 1193.46 478.14, 1191.46 480.27, 1189.58 483.55 C 1187.69 486.83, 1188.21 489.33, 1187.42 492.54 C 1186.64 495.74, 1186.32 497.21, 1185.64 499.58 C 1184.97 501.96, 1184.65 503.11, 1184.06 504.41 C 1183.48 505.72, 1183.89 505.95, 1182.72 506.11 C 1181.54 506.27, 1180.74 506.06, 1178.17 505.20 C 1175.61 504.34, 1173.47 503.86, 1169.88 501.83 C 1166.28 499.79, 1164.09 498.18, 1160.20 495.02 C 1156.31 491.87, 1154.03 489.77, 1150.41 486.05 C 1146.80 482.34, 1145.10 479.95, 1142.14 476.44 C 1139.18 472.92, 1138.62 470.45, 1135.62 468.47 C 1132.61 466.50, 1130.40 466.32, 1127.12 466.55 C 1123.85 466.79, 1121.67 467.43, 1119.25 469.64 C 1116.83 471.85, 1116.69 474.02, 1115.04 477.61 C 1113.38 481.20, 1112.96 483.65, 1110.98 487.59 C 1109.00 491.53, 1107.71 493.92, 1105.13 497.30 C 1102.54 500.68, 1101.03 502.28, 1098.07 504.48 C 1095.10 506.68, 1093.62 507.39, 1090.29 508.29 C 1086.97 509.20, 1085.25 509.42, 1081.43 509.03 C 1077.61 508.63, 1075.51 508.07, 1071.18 506.31 C 1066.85 504.54, 1064.36 503.10, 1059.77 500.21 C 1055.18 497.32, 1052.75 495.34, 1048.21 491.87 C 1043.68 488.40, 1041.51 486.17, 1037.11 482.86 C 1032.72 479.55, 1030.63 477.55, 1026.23 475.33 C 1021.83 473.10, 1019.52 471.98, 1015.11 471.73 C 1010.70 471.48, 1008.26 472.13, 1004.18 474.08 C 1000.09 476.03, 998.27 478.04, 994.68 481.46 C 991.09 484.89, 989.41 487.48, 986.23 491.20 C 983.05 494.92, 981.47 497.22, 978.77 500.06 C 976.07 502.91, 974.63 504.03, 972.74 505.41 C 970.84 506.80, 970.82 507.02, 969.30 507.01 C 967.78 507.00, 967.36 506.77, 965.14 505.37 C 962.91 503.96, 961.21 502.81, 958.18 499.96 C 955.14 497.12, 953.43 494.91, 949.96 491.16 C 946.49 487.40, 944.61 484.92, 940.84 481.21 C 937.06 477.49, 935.15 475.21, 931.06 472.60 C 926.97 469.99, 924.67 468.50, 920.39 468.17 C 916.11 467.84, 913.38 468.60, 909.66 470.95 C 905.93 473.29, 904.55 475.62, 901.76 479.87 C 898.96 484.12, 897.98 487.22, 895.68 492.21 C 893.39 497.20, 892.29 500.35, 890.28 504.82 C 888.27 509.30, 886.76 511.52, 885.63 514.59 C 884.49 517.66, 884.43 518.87, 884.62 520.16 C 884.80 521.45, 886.33 521.73, 886.55 521.04 C 886.77 520.35, 886.89 519.33, 885.73 516.73 C 884.57 514.13, 882.90 512.27, 880.75 508.03 C 878.61 503.80, 877.59 500.79, 875.01 495.54 C 872.44 490.29, 871.23 487.01, 867.90 481.78 C 864.56 476.55, 862.92 473.66, 858.32 469.39 C 853.71 465.12, 851.20 463.20, 844.88 460.44 C 838.55 457.68, 835.01 456.78, 826.68 455.57 C 818.35 454.37, 813.63 454.25, 803.24 454.40 C 792.84 454.56, 786.80 455.04, 774.68 456.36 C 762.56 457.69, 755.56 458.73, 742.64 461.01 C 729.71 463.29, 722.45 464.80, 710.06 467.76 C 697.67 470.72, 690.97 472.46, 680.70 475.80 C 670.43 479.15, 665.36 480.77, 658.72 484.48 C 652.08 488.18, 648.96 490.08, 647.50 494.33 C 646.04 498.58, 647.43 501.65, 651.40 505.73 C 655.37 509.80, 659.13 510.95, 667.35 514.73 C 675.57 518.51, 681.22 520.26, 692.50 524.63 C 703.78 529.00, 710.78 531.55, 723.74 536.59 C 736.70 541.63, 744.11 544.52, 757.30 549.84 C 770.49 555.15, 777.78 558.36, 789.67 563.16 C 801.56 567.96, 807.37 570.66, 816.75 573.84 C 826.12 577.02, 830.02 578.73, 836.54 579.06 C 843.07 579.40, 846.19 578.85, 849.36 575.51 C 852.53 572.17, 852.73 568.90, 852.38 562.35 C 852.04 555.81, 850.62 551.95, 847.63 542.79 C 844.64 533.64, 842.31 528.16, 837.44 516.57 C 832.58 504.98, 829.56 498.23, 823.31 484.85 C 817.06 471.46, 813.35 463.84, 806.17 449.64 C 798.99 435.43, 795.00 427.59, 787.40 413.82 C 779.81 400.05, 775.83 392.71, 768.21 380.77 C 760.59 368.84, 756.65 362.96, 749.31 354.15 C 741.97 345.34, 738.45 341.46, 731.51 336.71 C 724.58 331.95, 720.97 330.46, 714.64 330.38 C 708.32 330.31, 704.97 332.02, 699.90 336.32 C 694.83 340.61, 692.81 344.16, 689.30 351.86 C 685.78 359.56, 684.43 364.41, 682.32 374.82 C 680.21 385.23, 679.49 391.27, 678.74 403.91 C 677.99 416.55, 678.08 423.75, 678.57 438.02 C 679.05 452.29, 679.83 460.40, 681.16 475.26 C 682.49 490.12, 683.60 498.32, 685.20 512.32 C 686.81 526.32, 687.84 533.88, 689.18 545.26 C 690.52 556.64, 691.10 562.02, 691.89 569.21 C 692.69 576.40, 691.80 578.95, 693.13 581.20 C 694.47 583.44, 697.95 582.70, 698.57 580.44 C 699.18 578.17, 697.66 575.67, 696.21 569.88 C 694.77 564.09, 693.55 560.31, 691.34 551.48 C 689.12 542.65, 687.79 537.02, 685.14 525.74 C 682.49 514.46, 680.67 506.56, 678.10 495.09 C 675.54 483.62, 674.26 477.35, 672.32 468.39 C 670.39 459.44, 670.13 453.72, 668.44 450.32 C 666.75 446.91, 663.93 447.56, 663.89 451.36" style="stroke: black; fill: black;"/></svg>